<svg xmlns="http://www.w3.org/2000/svg" width="14.258" height="14.258" viewBox="0 0 14.258 14.258">
  <g id="times" transform="translate(0 -80)">
    <path id="Path_4" data-name="Path 4" d="M9.831,87.129l4.053-4.053a1.274,1.274,0,0,0,0-1.8l-.9-.9a1.274,1.274,0,0,0-1.8,0L7.129,84.426,3.076,80.373a1.274,1.274,0,0,0-1.8,0l-.9.9a1.274,1.274,0,0,0,0,1.8l4.053,4.053L.373,91.182a1.274,1.274,0,0,0,0,1.8l.9.9a1.274,1.274,0,0,0,1.8,0l4.053-4.053,4.053,4.053a1.274,1.274,0,0,0,1.8,0l.9-.9a1.274,1.274,0,0,0,0-1.8Z" transform="translate(0)" fill="#fb5962"/>
  </g>
</svg>
